<?xml version="1.0" encoding="UTF-8" standalone="no"?>
<svg width="640" xmlns="http://www.w3.org/2000/svg" height="480">
 <g id="g2860" stroke-width="3">
  <path id="path2350" d="m188.72 193.3c-12.101 7.2756-46.1 11.695-43.035 11.823-15.295 10.128-10.284 5.9238-27.064 16.406-30.19 13.139-46.058 39.671-67 61.597-16.692 23.773-22.405 51.318-25.042 78.728-7.2803 22.777-0.5372 45.893-0.074362 68.906 5.0042 26.369-11.026 50.528-18.487 75.069-2.4488 20.8-4.1937 42.684 4.2751 62.57 17.1 16.743-8.6678 19.94-8.5982-0.78156-6.5673-23.159-7.1305-48.644 1.7586-71.662 8.2849-20.948 19.046-43.394 13.382-66.184-2.0822-25.625-4.7551-51.057 2.0829-76.485 3.2076-30.962 14.564-62.727 39.963-85.154 15.755-26.975 45.815-41.686 73.42-57.24-5.9695 2.0023 26.392-16.931 42.538-14.739 4.2557-1.7808 28.421-12.991 11.88-2.8544z"/>
  <path id="path2352" d="m69.566 452.42c11.408-8.6694 59.906 2.532 38.354 8.826-1.7283-17.189-63.385 3.5612-38.354-8.826z"/>
  <path id="path2354" d="m179.63 375.69c-7.4703 28.446-32.43 49.94-42.612 77.751-19.172 25.091-36.837 52.209-40.08 83.433-1.9878 12.267 7.0262 38.565 6.5992 33.046-10.458 11.033-19.113-28.783-11.255-43.114 4.9909-28.419 24.917-50.531 39.374-74.822 11.57-25.846 32.652-48.387 42.465-73.966 1.8361-0.77573 3.6722-1.5514 5.5083-2.3271z"/>
  <path id="path2358" d="m127.71 327.15c27.013-5.9101 35.2 23.492 48.708 37.906 9.6851 25.78 24.509 57.998 58.759 61.72 12.044 3.9195 62.288 1.0654 27.718 7.6921-32.669-0.1156-69.964-8.4952-81.604-40.076-13.832-22.427-22.384-62.671-56.28-63.343-9.0855 2.3528 1.7498-2.6563 2.6992-3.8993z"/>
  <path id="path2360" d="m201.6 417.83c10.105 10.856 24.972 26.765 36.057 32.054-14.833 8.4206-46.058-25.037-37.186-31.37l1.1297-0.684z"/>
  <path id="path2364" d="m240.27 455.48c5.2971 24.29 2.7029 49.19 0.98795 73.648-6.9134 11.123 12.63 34.604-9.5174 17.593 4.2756-20.117 3.6771-40.316 4.623-60.828 4.4386-9.9156-12.224-27.107 3.9064-30.413z"/>
  <path id="path2366" d="m219.69 260.33c24.868 16.848 32.979 42.751 49.318 64.927 3.4814 27.661-2.0168 56.56 2.8944 83.89 21.013 19.24 2.5536 44.978 14.491 67.344 9.1882 20.333 11.434 41.24 23.012 60.836 16.183 8.0195 6.407 25.909-3.4143 7.9391-15.116-17.116-14.075-39.604-24.2-58.494-12.786-19.05-1.5234-42.393-8.92-61.081-17.313-22.357-7.2764-50.865-9.9344-76.156 3.1885-25.439-17.456-45.569-29.979-65.977-0.70766-8.418-30.38-17.646-13.268-23.229z"/>
  <path id="path2368" d="m365.89 232.68c24.834 19.239 10.993 49.18 23.503 73.159 9.3661 12.474-17.617 44.318-6.3666 16.488-6.7125-23.578-3.695-49.835-13.551-72.167-0.44324-7.9541-17.82-13.321-3.5857-17.481z"/>
  <path id="path2370" d="m372.09 321.04c18.412 16.992-20.694 9.8886 0 0z"/>
  <path id="path2372" d="m372.78 334.18c2.1153 27.42 13.59 53.664 10.359 81.468-4.4209 17.771-3.4701 40.753 2.9397 52.573-23.452-4.3499-7.9835-40.188-9.9244-58.025 2.2082-24.909-9.3345-48.064-10.393-72.7 2.3396-1.1056 4.6793-2.2112 7.019-3.3167z"/>
  <path id="path2374" d="m393.87 455.39c9.9492 21.068 1.5267 48.18 10.634 66.841 18.569 6.1697 1.805 29.216-2.0454 5.9501-19.415-12.02-3.6146-42.948-12.941-62.197-3.1097-7.2099-3.1527-7.5395 4.3521-10.595z"/>
  <path id="path2376" d="m315.7 463.99c6.3655 10.963 57.189 7.8797 31.134 13.793-6.8267 1.6732-50.75-6.9361-31.134-13.793z"/>
  <path id="path2378" d="m373.62 354.22c21.94-19.184 34.318-46.816 59.998-62.413-12.602 8.6266 9.2317-4.877-8.0671 8.8386-17.592 17.018-28.629 41.118-50.937 53.195l-0.994 0.3799z"/>
  <path id="path2380" d="m450.55 209.38c11.192 27.051-9.0174 52.327-12.047 78.719-1.5337 10.07-7.839 44.913-16.369 38.157 9.8968-24.258 9.1976-50.76 20.888-74.808 11.67-11.948-7.556-37.17 7.5279-42.069z"/>
  <path id="path2382" d="m423.98 335.99c5.586-9.1914 29.931-23.009 9.9787-5.0353-2.1991 3.1807-6.5876 3.4764-9.9787 5.0353z"/>
  <path id="path2384" d="m445.79 321.08c19.49 9.8474 4.0711 55.555-2.9402 47.773 10.158-14.976 2.1702-35.045-0.55063-45.962 1.1636-0.6037 2.3272-1.2075 3.4908-1.8112z"/>
  <path id="path2386" d="m447.02 374.97c5.6848 23.585-9.5465 47.252-14.995 69.564-7.0599 23.698-24.8 48.198-15.372 73.486-17.15 12.342-7.9731-34.57-2.2918-44.139 10.648-22.049 15.942-44.732 24.333-67.462 6.1829-9.9626-3.7364-28.208 8.3263-31.45z"/>
  <path id="path2390" d="m482.17 112.17c29.524-6.4646 58.206 15.585 60.733 41.612 4.9497 30.707-2.0339 60.9-1.7003 91.569-3.2336 26.601 1.0161 53.267 7.103 79.251 4.7932 25.118 3.2109 51.247-2.0559 76.63-4.2378 29.146-13.949 58.585-32.508 83.121-7.7092 5.4439-24.296 39.598-25.13 28.726 14.422-25.456 37.578-47.143 42.808-76.567 8.4269-23.826 11.014-49.194 13.058-73.869 0.76416-23.682-7.0596-46.264-9.1249-69.948-5.3187-25.352-0.5127-51.698 0.1864-77.355 2.7792-19.134 2.401-38.82 0.30731-58.129 0.024902-27.496-36.476-46.084-58.629-41.719 1.6507-1.1074 3.3015-2.2147 4.9523-3.3221z"/>
  <path id="path2392" d="m429.4 540.68c8.9796 15.211 48.327-1.748 42.394 2.1608-4.9022 7.9954-48.435 13.79-44.629-0.90338l1.4408-0.8105 0.7943-0.4469z"/>
  <path id="path2394" d="m350.88 570.11c13.182 7.1556 47.274-1.8525 41.38-0.84467 13.422-7.8892 25.143-8.0112 2.5636 0.051758 14.581-6.7982-23.939 13.349-33.885 7.5328-6.8363 0.3833-24.891-1.215-10.058-6.7399z"/>
  <path id="path2398" d="m412.76 5.4315c34.634 2.2566 59.056 29.163 49.66 60.304 5.7641 9.7163-7.6818 47.481-6.951 20.543-4.4725-21.868 11.324-53.98-17.385-65.893-3.8595-7.9215-44.406-8.9636-25.325-14.954z"/>
  <path id="path2400" d="m459.01 99.538c19.242 3.0212 15.551 38.143 3.1724 40.713 5.1865-13.866 1.1544-34.056-6.8915-38.405 1.2397-0.76923 2.4794-1.5385 3.7192-2.3077z"/>
  <path id="path2408" d="m363.87 109.76c15.709-4.155 31.548 13.484 8.1615 1.9688-2.6692-0.43035-16.501 1.7301-8.1615-1.9688z"/>
  <path id="path2410" d="m364.63 112.99c11.588 7.0912 38.964 4.5235 10.179 6.6506-2.9484 0.093681-19.739-3.8018-10.179-6.6506z"/>
  <path id="path2412" d="m408.66 116.5c14.596-6.413 24.197 1.0408 3.3133-0.17968-2.9534 1.0685-9.0515 3.6293-3.3133 0.17968z"/>
  <path id="path2414" d="m407.23 118.1c16.745 6.0305 34.179-7.3332 8.4157 4.5894-2.5285 0.54282-17.526-1.745-8.4157-4.5894z"/>
  <path id="path2416" d="m366.88 129.8c6.7437 15.86-23.456 25.972-10.088 40.703 17.577 5.4731 37.575 10.836 56.454 5.3174 13.894-0.27396-4.3451-9.051-19.756-8.4984-7.9784-7.7769-45.332 1.2467-20.671-5.401 15.934-1.5685 30.495 6.625 46.211 6.2758 4.4914 12.146-30.095 14.809-42.15 9.8082-14.498 0.37669-37.565-9.1364-22.742-24 10.138-6.1233 7.098-18.289 12.741-24.206z"/>
  <path id="path2418" d="m362.74 160.94c17.875-4.3178 36.094-1.061 52.598 5.5676 1.9517 7.0172-23.658-7.4118-32.69-5.2176-3.2938-2.1807-29.969 4.33-19.909-0.34999z"/>
  <path id="path2422" d="m381.53 134.29c17.085 8.3902 0.057617 11.481-1.8214 1.0041l1.4489-0.7988 0.3725-0.2053z"/>
  <path id="path2424" d="m396.83 140.38c32.711-3.6115-7.803 6.6129 0 0z"/>
  <path id="path2638" d="m396.38 8.3027c-22.817-2.1239-43.396 10.788-41.729 10.561-5.4134 3.0879-14.374 5.9433-3.1921 0.87127-30.722 13.49-40.392 46.64-68.189 64.088-23.593 20.66-47.342 42.904-63.213 69.224-20.225 24.856-36.36 52.304-49.658 80.536-8.5184 25.047-8.6126 49.931 7.2163 73.075 11.907 13.485-4.9103 24.445-6.9407 3.5008-15.499-24.066-17.296-51.185-5.7367-76.627 11.5-25.778 27.08-49.948 44.145-73.192 16.165-26.6 40.103-47.708 61.648-70.729 31.138-16.838 42.066-52.06 73.449-67.624 11.995-8.2879-7.6468 6.4266 7.3855-3.5864 11.775-5.0141-8.0204 4.6899 2.1917-0.52352 16.244-8.303-8.3004 4.8887 8.1965-4.8435 4.8748-6.1267 52.395-14.557 34.427-4.7295z"/>
  <path id="path2850" d="m345.78 60.473c-6.2468 15.349-2.5392 32.976-15.035 46.314-6.8125 13.005-16.24 16.778-3.4919 1.335 12.028-13.228 9.2953-30.505 14.598-45.903 1.3095-0.58187 2.619-1.1638 3.9284-1.7456z"/>
  <path id="path2852" d="m332.35 85.546c-17.419 8.5676-20.867 28.465-15.069 44.141-2.8214 15.739 8.2888 28.924 13.856 42.952 12.446 10.374 21.911 24.622 35.24 34.973 14.566 9.099 31.937 8.1742 47.908 2.5816 11.157-2.4938 19.076-7.2627 34.045-21.399 10.542-12.003 13.273-28.86 12.583-43.983 9.329-0.56036 0.74139 23.987-2.371 31.719-5.6526 14.38-26.539 29.594-39.12 32.209-15.561 6.7997-35.412 12.498-51.113 2.8652-15.629-7.8345-26.006-22.835-36.818-35.148-9.7731-10.692-17.617-26.382-17.859-41.124-1.6807-14.246-6.1183-31.428 7.1516-42.884 4.2462-1.8976 6.8693-5.8261 11.567-6.9038z"/>
  <path id="path2854" d="m365.9 130.02c14.18-13.864 29.998 4.1193 43.333-3.2958 22.092 3.636 1.9065 26.685 15.381 37.154-0.14456 18.307-3.6126 0.43546-9.4848-11.241 11.109-15.342-12.094-29.411-16.161-23.214-12.368 2.2149-24.32-7.9586-33.068 0.59723z"/>
  <path id="path2856" d="m354.35 91.087c19.287-12.199 30.38 9.4564 48.05 9.246 11.839-4.3984 44.154-3.1011 41.481 8.497-12.866-12.86-33.119-7.3497-50.061-6.4353-10.773-9.1308-35.725-15.212-39.995-10.938l0.5251-0.3698z"/>
  <path id="path2858" d="m383.21 109.12c5.9904 7.09 43.067-0.62559 28.013 4.4229-6.2817 2.7631-34.098 0.64837-28.013-4.4229z"/>
 </g>
 <g stroke-width="5" stroke="#000" fill="none">
  <path id="svg_1" d="m22 434c0-1 0.54136-2.7027 2-6 1.668-3.7706 2.6093-8.7975 4-14 1.826-6.8312 4.5673-14.81 7-23 2.625-8.838 4.5673-17.81 7-26 2.625-8.838 4.4817-16.88 6-24 1.4747-6.9156 3.4976-12.926 4-18 0.39415-3.9805 0.48626-7.8238 1-10 0.91901-3.893 1-6 1-8s0.4588-3.6934 1-5c0.38268-0.92389-0.22975-2.0268 0-3 0.51374-2.1762 2.9176-3.3869 4-6 0.38268-0.92389 0.91761-1.3869 2-4 0.38268-0.92389 0.61732-3.0761 1-4 0.5412-1.3066 1.5858-0.58578 3-2 0.70711-0.70709 0.58578-0.58578 2-2s0.61732-3.0761 1-4c0.5412-1.3066 2.1731-1.8527 3-3 1.3074-1.814 2.4588-2.6934 3-4 0.76537-1.8478-0.41422-2.5858 1-4 0.70711-0.70709 1-2 2-3l2-2c1.4142-1.4142 1.186-2.6925 3-4 1.1473-0.8269 2-2 4-4 1-1 2.1493-1.4743 3-2 1.9021-1.1756 2-2 3-3s2.8527-3.1731 4-4c1.814-1.3074 3-2 4-2s3-2 5-3l6-3c2-1 3.7055-2.3462 6-4 1.814-1.3074 2.6934-2.4588 4-3 0.92388-0.38269 1.0761-1.6173 2-2 1.3066-0.5412 2-1 3-2l3-3c1-1 3.186-1.6926 5-3 2.2945-1.6538 3.31-2.3375 6-4 1.203-0.7435 3.1522-2.2346 5-3 2.6131-1.0824 4.186-2.6926 6-4 1.1473-0.8269 0.94853-1.2987 2-3 1.1756-1.9021 2.2929-1.2929 3-2 1.4142-1.4142 3 0 4 0h3c1 0 3-2 4-2s1.2929-0.29289 2-1c1.4142-1.4142 2.6934-1.4588 4-2 0.92387-0.38269 2.7071-0.29289 2-1-0.70711-0.70711-1.6934 1.4588-3 2-0.92387 0.38269-1.6934 0.4588-3 1-1.8478 0.76537-4.1522 0.23463-6 1-2.6131 1.0824-4 3-5 3s-2.0761-0.38269-3 0c-1.3066 0.5412-3 1-4 2s-2.3869 1.9176-5 3c-0.92387 0.38269-3 0-4 1s-3.0761 1.6173-4 2c-1.3066 0.5412-1.8527 1.1731-3 2-3.628 2.6149-6 2-8 3s-4.0129 1.8398-5 2c-3.1214 0.50655-5 3-7 4l-6 3c-2 1-4.186 2.6926-6 4-1.1473 0.8269-2.0761 1.6173-3 2-2.6131 1.0824-3.1731 2.8527-4 4-1.3074 1.814-2 3-3 4-2 2-3.0761 2.6173-4 3-1.3066 0.5412-1.6926 3.186-3 5-1.6538 2.2945-3.2987 2.9485-5 4-1.9021 1.1756-2.6926 4.186-4 6-1.6538 2.2945-2.6926 3.186-4 5-0.8269 1.1473-2 3-3 4l-2 2c-1.4142 1.4142-1 3-2 4s-2.0761 1.6173-3 2c-1.3066 0.5412-2.186 2.6925-4 4-1.1473 0.8269-2 2-3 3s-2.0761 1.6173-3 2c-1.3066 0.5412-1.8527 3.1731-3 4-1.814 1.3075-1.5858 1.5858-3 3-0.70711 0.70709-1.2929 0.29291-2 1-1.4142 1.4142-0.61732 3.0761-1 4-0.5412 1.3066-2 2-3 3s-1 2-3 4l-3 3-3 3c-0.70711 0.70709-0.61732 2.0761-1 3-0.5412 1.3066-2.4588 1.6934-3 3-0.38268 0.92389-2.4588 2.6934-3 4-0.76537 1.8478-1.1443 3.9341-2 6-1.2102 2.9216-1.5405 5.0535-2 7-0.51374 2.1762-1.4863 4.8238-2 7-0.68926 2.9197-1 6-1 9 0 2-1 5-1 8v6 8 7 7c0 2 1 4 1 6v5 6 5 5 4 5 4 4 3 3 5 7 4 4 4 3 4 3 3 1"/>
  <path id="svg_2" d="m182 191v3 7c0 2-1 4-1 6 0 3-1 4-1 7v6c0 1 0.30745 3.186-1 5-0.8269 1.1473-0.33749 3.31-2 6-1.487 2.406-2.8777 4.066-4 6-1.8097 3.1185-4 5-5 7s-2.4588 2.6934-3 4c-0.38269 0.92387 0.70711 2.2929 0 3-1.4142 1.4142-2 1-2 3v5 5 4 4 4c0 2 1 3 1 4s0.4588 1.6934 1 3c0.38269 0.92389 0.58578 0.58578 2 2 0.70711 0.70709 0 2 0 3v4c0 2 0 5 1 5s-0.32036-3.0258 0-5c0.50655-3.1214 1-6 1-10s-0.49269-8.0243 0-13c0.50244-5.0742 1-11 1-17s-0.49829-10.938-1-17c-0.32993-3.9864-0.49623-8.9078-1-13-0.48874-3.97 0-6 0-9v-6c0-1-0.70711-2.2929 0-3 0.70711-0.70711 3.066-1.8777 5-3 3.1185-1.8097 6-4 8-6s4.3462-4.7055 6-7c1.3074-1.814 1.2346-4.1522 2-6 0.5412-1.3066 1.6173-2.0761 2-3 0.5412-1.3066 1.6173-2.0761 2-3 1.0824-2.6131 1.6926-3.186 3-5 0.8269-1.1473 1.6173-2.0761 2-3 0.5412-1.3066 1.2346-1.1522 2-3 0.5412-1.3066 1.1522-1.2346 3-2 1.3066-0.5412 1.5858-0.58578 3-2 0.70711-0.70711 0-2 1-3s0.69344-2.4588 2-3c0.92387-0.38269 1-1 2-2s0.29289-3.2929 1-4l3-3c1-1 1-2 3-4 1-1 2.4588-1.6934 3-3 0.76537-1.8478-0.051468-2.2987 1-4 1.1756-1.9021 3.3462-1.7055 5-4 1.3074-1.814 2.186-3.6926 4-5 2.2945-1.6538 3.186-4.6926 5-6 1.1473-0.8269 1-3 2-4s2.4588-1.6934 3-3c0.38269-0.92388 2-3 3-4s1.6926-2.186 3-4c0.8269-1.1473 2.4588-1.6934 3-3 0.38269-0.92388 2.4588-0.69344 3-2 0.38269-0.92388 2.4588-1.6934 3-3 0.38269-0.92388 1.0761-1.6173 2-2 1.3066-0.5412 1.1522-1.2346 3-2 1.3066-0.5412 2.2929-1.2929 3-2 0.70709-0.70711 1-1 2-2s2.4588-0.69344 3-2c0.38269-0.92388 1.0761-1.6173 2-2 1.3066-0.5412 1.6934-2.4588 3-3 1.8478-0.76537 2.6925-1.186 4-3 0.8269-1.1473 2.6925-1.186 4-3 0.8269-1.1473 2.4588-1.6934 3-3 0.38269-0.92388 1.2929-1.2929 2-2 1.4142-1.4142 2.2929-0.29289 3-1 1.4142-1.4142 0.69254-2.186 2-4 0.8269-1.1473 1.5858-0.58578 3-2 0.70709-0.70711 1.2929-1.2929 2-2 0.70709-0.70711 2-1 3-2s0.69345-2.4588 2-3c0.92389-0.38268 1.2929-1.2929 2-2 0.70709-0.70711 0.29291-2.2929 1-3 0.70709-0.70711 1.4588-0.69344 2-2 0.38269-0.92388 0.61731-1.0761 1-2 0.5412-1.3066 1-2 2-3s1.2929-2.2929 2-3c0.70709-0.70711 1.4588-0.69344 2-2 0.38269-0.92388 1.6934-2.4588 3-3 0.92389-0.38268 1.1522-0.23463 3-1 1.3066-0.5412 1.4743-1.1494 2-2 1.1756-1.9021 3.4588-0.69344 4-2 0.38269-0.92388 1.2929-1.2929 2-2 1.4142-1.4142 1.6934-1.4588 3-2 1.8478-0.76537 2.6934-1.4588 4-2 0.92389-0.38268 1.2929-1.2929 2-2 0.70709-0.70711 1.6173-1.0761 2-2 0.5412-1.3066 2.6934-2.4588 4-3 0.92389-0.38268 1.2929-1.2929 2-2 0.70709-0.70711 1.6934-2.4588 3-3 0.92389-0.38268 1.2929-1.2929 2-2 0.70709-0.70711 0.29291-1.2929 1-2 0.70709-0.70711 1-1 3-1 1 0 1.0761-0.61732 2-1 1.3066-0.5412 2.2929-0.29289 3-1 0.70709-0.70711 2-1 3-1s2.0761-0.61732 3-1c1.3066-0.5412 3-1 4-1s1.6934-0.4588 3-1c0.92389-0.38268 2 0 3 0s1-2 2-2 2.0761 0.38268 3 0c1.3066-0.5412 2-1 3-1s1-1 3-1c1 0 2.2929 0.70711 3 0 1.4142-1.4142 1-2 2-2h3 3 3 4 3 3 3c1 0 1.3869 0.91761 4 2 0.92389 0.38268 2.2929-0.70711 3 0 0.70709 0.70711 1.2929 0.29289 2 1 0.70709 0.70711 1.0761 0.61732 2 1 1.3066 0.5412 1.6934 2.4588 3 3 0.92389 0.38268 1.2929 0.29289 2 1 0.70709 0.70711 1.2929 1.2929 2 2 1.4142 1.4142 2.4588 1.6934 3 3 0.38269 0.92388 1.6934 1.4588 3 2 0.92389 0.38268 1 1 3 1 1 0 3.186 0.69255 5 2 1.1473 0.8269 1.2929 1.2929 2 2 0.70709 0.70711 1.0761 1.6173 2 2 1.3066 0.5412 0.29291 2.2929 1 3 1.4142 1.4142 2.2929 0.29289 3 1 1.4142 1.4142 0.29291 3.2929 1 4 1.4142 1.4142 2 1 3 2s1.5858 0.58578 3 2c0.70709 0.70711 0.4588 1.6934 1 3 0.38269 0.92388 0.61731 2.0761 1 3 0.5412 1.3066 1 2 1 3v3 4 3 3 3c0 1-0.29291 1.2929-1 2-1.4142 1.4142 0.70709 3.2929 0 4-0.70709 0.70711-0.29291 1.2929-1 2-1.4142 1.4142-1.6173 1.0761-2 2-0.5412 1.3066-0.29291 2.2929-1 3-0.70709 0.70711-1 2-1 3v3 3 3 1"/>
  <path id="svg_3" d="m454 102h3c1 0 1.2929 0.29289 2 1 0.70709 0.70711 2.2929-0.70711 3 0 1.4142 1.4142 0.29291 2.2929 1 3 0.70709 0.70711 1.2929 0.29289 2 1 0.70709 0.70711 1.4588 1.6934 2 3 0.38269 0.92388 1 1 1 2s0.61731 2.0761 1 3c0.5412 1.3066 1 2 1 3s0.29291 1.2929 1 2c1.4142 1.4142 0 3 0 4v3c0 1 0.38269 2.0761 0 3-0.5412 1.3066-1.2929 1.2929-2 2-0.70709 0.70711-1 1-2 2s-2 2-3 2v2"/>
  <path id="svg_4" d="m463 144v3 3c0 1-0.4588 1.6934-1 3-0.76538 1.8478 0.4595 5.0535 0 7-0.51373 2.1762-1.4863 3.8238-2 6-0.22977 0.97325-0.4588 1.6934-1 3-0.76538 1.8478-0.29291 2.2929-1 3-1.4142 1.4142 0.70709 3.2929 0 4-1.4142 1.4142-1.6934 1.4588-3 2-0.92389 0.38269-1.0761 1.6173-2 2-1.3066 0.5412-2.4588 2.6934-3 4-0.38269 0.92387-1 1-2 2s-1.1522 1.2346-3 2c-1.3066 0.5412-1.4588 1.6934-2 3-0.38269 0.92387-0.29291 1.2929-1 2-0.70709 0.70711-1.4588 0.69344-2 2-0.38269 0.92387-1.2929 1.2929-2 2-0.70709 0.70711-2.0761 0.61731-3 1-1.3066 0.5412-1.6934 2.4588-3 3-0.92389 0.38269-1.2929 1.2929-2 2-0.70709 0.70711-0.29291 1.2929-1 2-0.70709 0.70711-1.2929 0.29289-2 1-1.4142 1.4142-3.0535-0.4595-5 0-2.1762 0.51375-4.0761 0.61731-5 1-2.6131 1.0824-2.5492 2.9552-6 4-1.9142 0.57958-3.6934 1.4588-5 2-0.92389 0.38269-2.2929-0.70711-3 0-1.4142 1.4142-1 2-2 2s-1 1-2 1-2 1-3 1h-3c-2 0-3-1-4-1s-1-1-3-1c-1 0-1.2929-0.29289-2-1-0.70709-0.70711-2.0761 0.38269-3 0-1.3066-0.5412-2.2929-0.29289-3-1-0.70709-0.70711-1-1-2-1s-1.2929-0.29289-2-1c-1.4142-1.4142-3 0-4 0s-1-1-3-1c-1 0-1.2929-0.29289-2-1-1.4142-1.4142-0.29291-2.2929-1-3l-3-3c-0.70709-0.70711-1.2929-1.2929-2-2-1.4142-1.4142 0.41422-2.5858-1-4-0.70709-0.70711-1.1522-0.23463-3-1-1.3066-0.5412-1.5858-0.58578-3-2-0.70709-0.70711-1.4743-1.1494-2-2-1.1756-1.9021-2.6934-1.4588-4-2-0.92389-0.38269-1.2929-1.2929-2-2-0.70709-0.70711-1.2929-1.2929-2-2-1.4142-1.4142-2.2929-0.29289-3-1-0.70709-0.70711-0.23462-1.1522-1-3-0.5412-1.3066-2.4588-0.69344-3-2-0.38269-0.92387-1-2-2-3s-1.186-1.6926-3-3c-1.1473-0.8269-2.6173-3.0761-3-4-0.5412-1.3066-2.2929-1.2929-3-2-0.70709-0.70711-2-1-2-2s-1-2-2-3-0.29291-2.2929-1-3c-1.4142-1.4142-2.2929-0.29289-3-1-1.4142-1.4142-0.29291-2.2929-1-3-1.4142-1.4142-1-2-1-4 0-1-1-1-1-3 0-1-1-2-1-3s-0.29291-1.2929-1-2c-0.70709-0.70711 0-2 0-3s-1-1-1-3v-3-3-3c0-1 0.61731-2.0761 1-3 0.5412-1.3066 0.29291-2.2929 1-3 1.4142-1.4142 1.6173-1.0761 2-2 0.5412-1.3066 1-2 1-3v-3-3-3-3-3c0-1 0.4588-1.6934 1-3 0.38269-0.92388 1.2929-1.2929 2-2 1.4142-1.4142 1.2929-2.2929 2-3 0.70709-0.70711 1-1 1-2s0.29291-1.2929 1-2c0.70709-0.70711 2 0 2-2h1v-1h1"/>
  <path id="svg_5" d="m341 64c1 0 1 1 1 2v3 3 3 3c0 1-0.23462 1.1522-1 3-0.5412 1.3066-1.4588 1.6934-2 3-0.38269 0.92388-0.61731 1.0761-1 2-0.5412 1.3066-1.2929 1.2929-2 2-1.4142 1.4142-0.23462 2.1522-1 4-0.5412 1.3066-1 2-1 3v3c0 1 0.41422 1.5858-1 3-0.70709 0.70711-1.4588 1.6934-2 3-0.38269 0.92388-1.2929 1.2929-2 2-0.70709 0.70711-1.1494 1.4743-2 2-1.9021 1.1756-1.2929 2.2929-2 3-0.70709 0.70711-1 1-1 2h-1v3"/>
  <path id="svg_6" d="m360 87h3 3 3 3c1 0 2.2929-0.70711 3 0 1.4142 1.4142 0.69345 2.4588 2 3 0.92389 0.38268 2.2929 0.29289 3 1 0.70709 0.70711 2.1731 0.85273 3 2 1.3075 1.814 3.1593 2.6106 6 4 3.2389 1.5841 4 2 5 2h3 3c1 0 2.9078-0.49622 7-1 3.97-0.48873 6.2929-0.29289 7-1 0.70709-0.70711 1-1 2-1h3c1 0 2.1522-0.76537 4 0 1.3066 0.5412 2.2929 0.29289 3 1 0.70709 0.70711 1 1 2 1h3c1 0 1.1522 0.23463 3 1 1.3066 0.5412 2.0761 0.61732 3 1 1.3066 0.5412 2 1 2 3h2l1 1"/>
  <path id="svg_7" d="m406 129c0-1-1-1-2-1s-1.6934-0.4588-3-1c-0.92389-0.38268-2 0-3 0h-3-4-3-3-3-4c-3 0-4.6934 0.4588-6 1-0.92389 0.38269-2 1-3 1s-1.2929 0.29289-2 1c-0.70709 0.70711-0.29291 1.2929-1 2-1.4142 1.4142-0.29291 2.2929-1 3-0.70709 0.70711-0.58578 0.58578-2 2-0.70709 0.70711-1 1-1 2s-1 1-1 2v3 3c0 1-0.29291 1.2929-1 2-1.4142 1.4142-0.29291 3.2929-1 4-0.70709 0.70711-1.2929 0.29289-2 1-0.70709 0.70711-0.29291 1.2929-1 2-0.70709 0.70711-1.2929 0.29289-2 1-0.70709 0.70711-0.29291 1.2929-1 2-0.70709 0.70711-1.2929 0.29289-2 1-0.70709 0.70711 0 2 0 3s-0.70709 2.2929 0 3c1.4142 1.4142 2 1 3 1s2.0761-0.38269 3 0c1.3066 0.5412 2 1 3 1s1.6934 0.4588 3 1c0.92389 0.38269 2 0 3 0s0.58578 0.58578 2 2c0.70709 0.70711 2 0 3 0 2 0 3 1 4 1h3 3c1 0 2.0761-0.38269 3 0 2.6131 1.0824 4 2 5 2h4 4 3 3 4 3c1 0 3.2929 0.70711 4 0 0.70709-0.70711 1.0761-0.61731 2-1 1.3066-0.5412 1.2929-1.2929 2-2 0.70709-0.70711 0.61731-1.0761 1-2 0.5412-1.3066 2.4588-1.6934 3-3 0.38269-0.92387 1-1 1-2v-3c0-1-0.58578-0.58578-2-2-0.70709-0.70711-0.61731-1.0761-1-2-0.5412-1.3066-2-2-2-3v-3c0-1-2-1-2-3v-3-3-3-3-3c0-1-0.69345-2.4588-2-3-0.92389-0.38269-1.2929-1.2929-2-2-0.70709-0.70711-2-1-3-1h-2"/>
  <path id="svg_8" d="m379 136h3c1 0 2 0 2 2h1v1h2"/>
  <path id="svg_9" d="m393 141h3 3c1 0 1.2929-0.29289 2-1 0.70709-0.70711 2 0 3 0v-1h2"/>
  <path id="svg_10" d="m370 162c-1 0-2.7071-0.29289-2-1 0.70709-0.70711 1.2929-0.29289 2-1 1.4142-1.4142-0.41422-2.5858 1-4 0.70709-0.70711 2.0761-0.61731 3-1 1.3066-0.5412 2-1 3-1h3 3 3 3 3c1 0 1.2929 0.29289 2 1 1.4142 1.4142 2.2929 0.29289 3 1 0.70709 0.70711 1.6934 2.4588 3 3 0.92389 0.38269 1.0761 0.61731 2 1 1.3066 0.5412 1.2929 1.2929 2 2 0.70709 0.70711 1.2929 0.29289 2 1 1.4142 1.4142 3 1 4 1s2 2 2 1-1.6934-0.4588-3-1c-0.92389-0.38269-2-1-3-1s-1-1-2-1-1-1-2-1-1.2929-0.29289-2-1c-0.70709-0.70711-1.6934-0.4588-3-1-0.92389-0.38269-2.2929 0.70711-3 0-1.4142-1.4142-1.0761-1.6173-2-2-1.3066-0.5412-3-1-4-1h-3-3-3c-1 0-2.0761-0.38269-3 0-1.3066 0.5412-2.2929 0.29289-3 1-0.70709 0.70711-1.2929 0.29289-2 1-0.70709 0.70711-1 1-2 1l-1 1v1h-1"/>
  <path id="svg_11" d="m370 164h4 3 3 3c2 0 2-1 3-1h3 3 3 3 3c1 0 2.2929-0.70711 3 0 0.70709 0.70711 1 1 2 1h1"/>
  <path id="svg_12" d="m363 113c1 0 2.2929-0.70711 3 0 0.70709 0.70711 1.2929 0.29289 2 1 0.70709 0.70711 2.0761 0.61732 3 1 1.3066 0.5412 2.0761 0.61732 3 1 1.3066 0.5412 2 1 3 1h3c1 0 1-1 1-2s-1-1-2-1h-3-3-3-3"/>
  <path id="svg_13" d="m412 118h1c1 0 2.2929 0.70711 3 0 0.70709-0.70711 2.0761-0.61732 3-1 1.3066-0.5412 2-1 3-1s2.2929-0.29289 3-1c0.70709-0.70711-1-1-2-1s-2.2929-0.70711-3 0c-0.70709 0.70711-0.58578 0.58578-2 2-0.70709 0.70711-0.29291 1.2929-1 2-0.70709 0.70711-2 0-3 0s-2 1-3 1h-1"/>
  <path id="svg_14" d="m387 111h4 4 3 3 3 3 3 3"/>
  <path id="svg_15" d="m218 265c1 0 3.186-0.30746 5 1 4.5891 3.3076 6 6 8 7 4 2 6 4 9 6s2.5858 2.5858 4 4l2 2c1.4142 1.4142 3 2 3 3s0.58578 0.58578 2 2c0.70711 0.70709 0 2 0 3s1 2 1 3v5c0 1 0.48625 2.8238 1 5 0.4595 1.9465 0.4588 2.6934 1 4 0.38269 0.92389-0.38269 2.0761 0 3 0.5412 1.3066 1 2 1 3s0.29289 1.2929 1 2c1.4142 1.4142 0.14935 2.4743 1 3 1.9021 1.1756 1.4588 2.6934 2 4 0.38269 0.92389-0.38269 2.0761 0 3 1.0824 2.6131 3 3 3 4s0.29291 1.2929 1 2c0.70709 0.70709-0.70709 2.2929 0 3 0.70709 0.70709 1 2 1 3v4c0 1 1 2 1 3v3 3c0 1 1 2 1 3v4c0 1-0.38269 3.0761 0 4 0.5412 1.3066 0.29291 3.2929 1 4 0.70709 0.70709 1 2 1 3v4 7c0 2 0.4588 3.6934 1 5 0.76538 1.8478 0 3 0 4s1 2 1 3 1 2 1 3v4c0 1 0.29291 1.2929 1 2 1.4142 1.4142 0 3 0 4v3c0 1 0.29291 1.2929 1 2 1.4142 1.4142 0 3 0 4s0.58578 0.58578 2 2c0.70709 0.70709 0 2 0 3s1 1 1 2 1 1 1 3c0 1 1 1 1 3v3c0 1 0.58578 0.58578 2 2 0.70709 0.70709 0 2 0 3v3c0 1-1 2-1 3s-1 2-1 3-0.29291 1.2929-1 2c-0.70709 0.70709 0 2 0 3v3c0 1-0.38269 2.0761 0 3 0.5412 1.3066 2 1 3 2l3 1h1v2"/>
  <path id="svg_16" d="m122 330h3 3c1 0 2.2929-0.70709 3 0 1.4142 1.4142 0.87856 2.4935 4 3 0.98709 0.16019 2.6934 0.4588 4 1 0.92387 0.38269 1.2929 0.29291 2 1 0.70711 0.70709 1.8238 1.4863 4 2 1.9465 0.4595 2.6934 1.4588 4 2 0.92387 0.38269 2.0761 0.61731 3 1 1.3066 0.5412 3.4588 1.6934 4 3 0.38269 0.92389 1 2 1 3s2 3 3 6 2 5 2 6-0.70711 2.2929 0 3c0.70711 0.70709 0.29289 1.2929 1 2 1.4142 1.4142 2.2929 0.29291 3 1 1.4142 1.4142 0.29289 3.2929 1 4 0.70711 0.70709 1.2929 1.2929 2 2 1.4142 1.4142 3 2 4 4s2.3375 4.31 4 7c1.487 2.406 3 5 4 6s1.6173 2.0761 2 3c0.5412 1.3066 1.2929 1.2929 2 2 0.70711 0.70709 1 2 2 3s2.6926 2.186 4 4c1.6538 2.2945 2.0979 2.8244 4 4 0.85065 0.52573 1.2929 0.29291 2 1 0.70711 0.70709 1.2929 1.2929 2 2 0.70711 0.70709 1 2 2 3l2 2c1.4142 1.4142 0.29289 3.2929 1 4l3 3c2 2 3.2929 2.2929 4 3 1.4142 1.4142 2.2929 0.29291 3 1 0.70711 0.70709 1.6934 0.4588 3 1 0.92387 0.38269 2 0 3 0h3c1 0 2 1 4 1h5 5 5c1 0 0.58578 0.58578 2 2 0.70711 0.70709 2.0258-0.32037 4 0 6.2429 1.0131 11 3 12 3h6 2"/>
  <path id="svg_17" d="m171 384c0-1 0.70711 0.29291 0 1-1.4142 1.4142-2 1-2 2s-2 1-2 2-0.58578 0.58578-2 2-1 3-1 4-1 1-1 3c0 1 0.76537 2.1522 0 4-0.5412 1.3066-1.4588 4.6934-2 6-0.76537 1.8478 0.38269 4.0761 0 5-0.5412 1.3066-1.4588 1.6934-2 3-0.38269 0.92389-1 2-2 3s-0.69344 2.4588-2 3c-0.92387 0.38269-1 1-2 2s-3.1731 1.8527-4 3c-1.3074 1.814-2.4588 2.6934-3 4-0.38269 0.92389-0.29289 2.2929-1 3-1.4142 1.4142-2.2929 0.29291-3 1-1.4142 1.4142-1.2929 2.2929-2 3-0.70711 0.70709 0 2-2 4-1 1-2 3-3 4s-0.58578 1.5858-2 3c-0.70711 0.70709-1.2929 1.2929-2 2-0.70711 0.70709-0.29289 2.2929-1 3-0.70711 0.70709-0.29289 1.2929-1 2-1.4142 1.4142-2.2929 0.29291-3 1-1.4142 1.4142 0.30656 3.4588-1 4-0.92388 0.38269-0.29289 2.2929-1 3-0.70711 0.70709-1 1-2 1v2h-1"/>
  <path id="svg_18" d="m106 459c0-1 0.38268-2.0761 0-3-0.5412-1.3066-1.2929-1.2929-2-2-0.70711-0.70709-0.29289-1.2929-1-2-0.70711-0.70709-1.2929-0.29291-2-1-0.70711-0.70709-1.6934-0.4588-3-1-0.92388-0.38269-2 0-3 0h-3-3-3-3-3-3-3c-1 0-2.2929-0.70709-3 0-0.70711 0.70709-1 1-2 1s-1 1-2 1h-1v1h-1"/>
  <path id="svg_19" d="m10 477c1-1 2.8244-1.0979 4-3 0.52573-0.85065 0.46927-1.3045 2-5 0.5412-1.3066 1.9176-1.3869 3-4 0.38268-0.92389 0-3 0-4v-4c0-2 1-3 1-5v-4c0-2 1-3 1-6 0-2 0.5405-4.0535 1-6 0.51374-2.1762 1.7702-4.0268 2-5 0.51374-2.1762 1.4863-3.8238 2-6 0.68926-2.9197 1.4863-4.8238 2-7 0.22975-0.97324 0-3 0-4 0-2 0.4588-2.6934 1-4 0.38268-0.92389 0.29289-1.2929 1-2 1.4142-1.4142 0-3 0-4s-0.38268-2.0761 0-3c1.0824-2.6131 1.7702-3.0268 2-4 0.51374-2.1762 1-3 1-5 0-1 2-3 2-4v-4c0-1 1-2 1-3s-0.45951-2.0535 0-4c0.51374-2.1762 1.4588-2.6934 2-4 0.76537-1.8478 1-2 1-4 0-1 1-2 1-4 0-1 2-1 2-2s1-3 1-4-0.76537-2.1522 0-4c0.5412-1.3066 2-3 2-5s1-3 1-4c0-2 0.61732-3.0761 1-4 0.5412-1.3066 0.29289-2.2929 1-3 0.70711-0.70709 1.4588-0.69345 2-2 0.38268-0.92389 2-3 2-5 0-1 0.4588-2.6934 1-4 0.76537-1.8478 0.4588-2.6934 1-4 0.38268-0.92389 0-2 0-3s1-2 1-3v-3c0-1 0.4588-2.6934 1-4 0.38268-0.92389-0.38268-2.0761 0-3 0.5412-1.3066 1-4 1-5v-4c0-1 0.4588-1.6934 1-3 0.38268-0.92389 0.4588-1.6934 1-3 0.76537-1.8478 0.58578-1.5858 2-3 0.70711-0.70709 0.4588-1.6934 1-3 0.38268-0.92389 1.4863-0.82376 2-3 0.22975-0.97324 2-1 2-2s0.61732-2.0761 1-3c0.5412-1.3066 0.29289-2.2929 1-3 0.70711-0.70709 1.2929-1.2929 2-2 0.70711-0.70709 1-1 2-3v-1h1v-1"/>
  <path id="svg_20" d="m71 265h-3c-1 0-1.0761 0.61731-2 1-1.3066 0.5412-0.58578 1.5858-2 3s-2.4189 0.41885-4 2-2 3-3 4-1.6934 3.4588-3 4c-0.92388 0.38269-1.2929 0.29291-2 1-1.4142 1.4142-1.0761 2.6173-2 3-1.3066 0.5412-1.186 1.6925-3 3-1.1473 0.8269-2 2-3 3s-3.4189 2.4188-5 4-1.4189 4.4188-3 6-2 2-4 4c-1 1-1.5858 0.58578-3 2-0.70711 0.70709-1 2-2 3-2 2-2.6173 4.0761-3 5-0.5412 1.3066-1.6926 2.186-3 4-0.8269 1.1473-1.5858 0.58578-3 2-0.70711 0.70709-2 3-2 4s-0.29289 1.2929-1 2c-1.4142 1.4142 0.76537 3.1522 0 5-0.5412 1.3066-1.4588 1.6934-2 3-0.76537 1.8478 0.16018 4.0129 0 5-0.50654 3.1214-1 6-1 8v8 7 5 5 4c0 1-0.70711 2.2929 0 3 1.4142 1.4142 1.5405 1.0535 2 3 0.51374 2.1762 1.4962 3.9078 2 8 0.36655 2.9775 1.0954 6.9774 2 11 1.1187 4.9748 2.9725 8.6475 4 13 0.68926 2.9197 0.48626 4.8238 1 7 0.4595 1.9465 1 3 1 4v4 3 3 3 1h-1"/>
  <path id="svg_21" d="m362 229c0 1 1 1 2 2s2.4588 1.6934 3 3c0.38269 0.92387 1.7899 3.0784 3 6 0.85571 2.0659 3 4 4 6s1.6925 3.186 3 5c0.8269 1.1473 1.5858 0.58578 3 2 0.70709 0.70711-0.4595 3.0535 0 5 0.51373 2.1762 2 5 2 6v3c0 2 1 4 1 5v5 9 8 4 3 3 3 3 3c0 2 1 3 1 5v3 1"/>
  <path id="svg_22" d="m375 346c1 0 2.6934-0.4588 4-1 0.92389-0.38269 2.2929-0.29291 3-1 1.4142-1.4142 1.4588-1.6934 2-3 0.38269-0.92389 0.69345-1.4588 2-2 1.8478-0.76538 3.8527-2.1731 5-3 1.814-1.3075 2.2346-1.1522 3-3 0.5412-1.3066 2.0535-1.5405 4-2 2.1762-0.51373 1.6934-3.4588 3-4 0.92389-0.38269 2-2 3-3l3-3c1-1 1.6925-3.186 3-5 0.8269-1.1473 1.2929-1.2929 2-2 1.4142-1.4142 1-3 1-4s1.2346-1.1522 2-3c0.5412-1.3066 1.2929-2.2929 2-3 1.4142-1.4142 2.2929-0.29291 3-1 0.70709-0.70709 0.82376-2.4863 3-3 0.97324-0.22977 1-1 2-1s1-1 2-1h1"/>
  <path id="svg_23" d="m371 334v3c0 2-1 4-1 6v7 4 4 5c0 2-0.32037 4.0258 0 6 0.50653 3.1214 1.4935 5.8786 2 9 0.48056 2.9613 0 5 1 8s2 5 3 7 2.1731 3.8527 3 5c1.3075 1.814 1.4588 3.6934 2 5 0.38269 0.92389 0 3 0 4 0 2 1 3 1 5 0 1 1 2 1 4 0 1-0.70709 2.2929 0 3 0.70709 0.70709 1 2 1 3s-0.4588 1.6934-1 3c-0.38269 0.92389-1 2-1 4v3c0 1-2 1-2 2s0.38269 2.0761 0 3c-0.5412 1.3066-1 2-1 3v3 4c0 2 2 4 3 5v3h2"/>
  <path id="svg_24" d="m352 468c-1 0-4 1-5 1h-8-6c-6 0-8.8786-0.49347-12-1-1.9742-0.32037-0.70709 0.70709 0 0s2.2929-0.29291 3-1c0.70709-0.70709 2-1 3-1s2-1 3-1 1.6934-0.4588 3-1c0.92389-0.38269 2 0 3 0h2"/>
  <path id="svg_25" d="m413 469c1 0 1.2929-0.29291 2-1 1.4142-1.4142 2.2929-1.2929 3-2 0.70709-0.70709 2.1443-2.9341 3-5 1.2101-2.9216 2-5 3-8s2.4935-4.8786 3-8c0.32037-1.9742 1-4 1-6s1-3 1-5v-4-4c0-1-0.70709-2.2929 0-3 1.4142-1.4142 2-2 2-3s0.58578-0.58578 2-2c0.70709-0.70709 0.29291-1.2929 1-2 1.4142-1.4142 1-2 1-4 0-1 0.77023-1.0268 1-2 0.51373-2.1762 1-3 2-4s0.61731-2.0761 1-3c0.5412-1.3066 1.2929-1.2929 2-2 1.4142-1.4142 0.4588-2.6934 1-4 0.38269-0.92389 0.29291-1.2929 1-2 1.4142-1.4142 0-3 0-4s1-2 1-4v-3"/>
  <path id="svg_26" d="m446 361c0-1 0.4588-1.6935 1-3 0.38269-0.92389 0-2 0-3v-4-5-3-3-3-3c0-1-1-1-1-2h-1l-1-1"/>
  <path id="svg_27" d="m431 331h4 4v-1"/>
  <path id="svg_28" d="m425 322c1-1 2.2929-1.2929 3-2 0.70709-0.70709 0.77023-2.0268 1-3 0.51373-2.1762 0.77023-3.0268 1-4 0.51373-2.1762 1.9176-2.3869 3-5 0.76538-1.8478 0.5405-3.0535 1-5 0.51373-2.1762 1.4863-3.8238 2-6 0.4595-1.9465 0.48627-3.8238 1-6 0.4595-1.9465 1-4 1-6 0-3 0.75565-6.015 1-8 0.50378-4.0922 1.4935-6.8786 2-10 0.64072-3.9484 0.63345-7.0225 1-10 0.50378-4.0922 0.35928-6.0516 1-10 0.50653-3.1214 0.5405-6.0535 1-8 0.51373-2.1762 1-3 1-4s-0.70709-2.2929 0-3c0.70709-0.70711 1-1 1-2h1"/>
  <path id="svg_29" d="m477 113c1-1 2-1 3-1h3c1 0 2.2929-0.70711 3 0 1.4142 1.4142 0.69345 2.4588 2 3 0.92389 0.38268 3.7027 1.5414 7 3 3.7706 1.668 8.186 2.6926 10 4 1.1473 0.8269 2.2929 0.29289 3 1 0.70709 0.70711 1 1 2 1s1.2929 0.29289 2 1c0.70709 0.70711 2.6934 0.4588 4 1 0.92389 0.38268 0.82373 1.4863 3 2 0.97327 0.22975 0.69342 2.4588 2 3 0.92389 0.38269 2 2 4 3s3 2 5 3 3 3 3 4 0.61731 2.0761 1 3c0.5412 1.3066 1.4588 2.6934 2 4 0.38269 0.92387 0 2 0 3s-0.45953 3.0535 0 5c0.51373 2.1762 1 4 1 5v6 7c0 2-0.38269 5.0761 0 6 1.0824 2.6131 2 4 2 6v5 4c0 1 0.4588 1.6934 1 3 0.76538 1.8478 0 3 0 4v5 9 6c0 2-1 3-1 5v4 4 6 4 5 4 9 4 3c0 1-2 1-2 3v4 4 4 4 3c0 1 0 2 1 3s1.4588 2.6934 2 4c0.38269 0.92389 0.4588 1.6934 1 3 0.38269 0.92389-1.5308 2.3045 0 6 0.5412 1.3066 1.4863 1.8238 2 4 0.22974 0.97324 2 3 2 4s0.4588 1.6934 1 3c0.38269 0.92389 0 2 0 4v5 3 4 4c0 2 1 3 1 4v4 5c0 2-0.68927 3.0803 0 6 0.51373 2.1762 1 4 1 6s1 4 1 6v5 5 3c0 1 0.38269 3.0761 0 4-0.5412 1.3066-1.4863 2.8238-2 5-0.22974 0.97324-0.4588 2.6934-1 4-0.76538 1.8478-1 2-1 3s-1.2929 1.2929-2 2c-1.4142 1.4142-1.7703 1.0268-2 2-0.51373 2.1762-1 3-2 5s-1 4-2 6-2 4-2 6c0 1-0.4588 2.6934-1 4-0.76538 1.8478 0.38269 3.0761 0 4-1.0824 2.6131-2 3-2 4v3 3c0 1-1 2-1 4v3 4c0 1-1 1-1 3 0 1-0.58582 0.58578-2 2-0.70709 0.70709-0.29291 2.2929-1 3-1.4142 1.4142-2.6926 1.186-4 3-0.8269 1.1473-1.6934 2.4588-3 3-0.92389 0.38269-1 2-2 2s-1 1-2 1l-1 1"/>
 </g>
</svg>
